<svg width="135" height="180" viewBox="0 0 135 180" fill="none" xmlns="http://www.w3.org/2000/svg">
<g clip-path="url(#clip0)">
<path d="M32.6967 112.459C22.0166 121.066 5.52806 130.473 3.88858 131.931C2.577 133.154 0.000656128 134.894 0.234863 138.986C0.562759 143.737 4.35699 151.356 13.585 160.293C25.1551 171.487 34.5236 181.882 41.9247 179.436C48.3889 177.272 112.469 120.408 112.469 120.408C118.091 115.752 123.009 111.565 127.927 106.157C129.38 104.557 131.581 102.159 132.846 100.371C135.984 95.9501 135.188 93.3632 132.331 90.6823C131.16 89.6005 130.223 91.2467 128.958 90.259C118.372 81.8869 107.785 73.5148 96.4024 66.2245C95.0909 65.3779 93.6856 64.5312 92.1398 64.5312C90.5003 64.5312 89.0482 65.3779 87.6897 66.3186C85.4881 67.7766 74.3865 77.5597 60.7085 88.4246" fill="#47549B"/>
<path d="M32.6976 112.459C22.0175 121.066 5.57583 130.52 3.8895 131.931C-1.68476 136.682 -2.52793 142.937 13.5859 160.293C23.3291 170.782 35.8829 181.741 41.9256 179.436C48.2962 176.99 112.47 120.408 112.47 120.408C118.091 115.752 123.01 111.565 127.928 106.157C129.38 104.557 131.535 102.112 132.847 100.371C135.329 97.0319 135.142 94.8213 133.784 92.4696C130.692 87.2018 107.739 73.5148 96.4034 66.2245C95.0918 65.3779 93.6865 64.5312 92.1407 64.5312C90.5012 64.5312 89.0491 65.3779 87.6907 66.3186C85.4891 67.7766 74.3874 77.5597 60.7094 88.4246" stroke="#444C73" stroke-width="0.9794" stroke-miterlimit="10"/>
<path d="M32.6974 109.825C22.0173 118.432 7.26188 129.062 5.6224 130.52C4.21712 131.837 1.26605 134.8 1.82817 139.175C2.43712 143.549 6.55926 149.287 14.8035 157.706C24.8278 167.959 35.9295 179.107 41.9253 176.802C48.2491 174.356 112.47 117.774 112.47 117.774C118.091 113.118 123.338 108.038 128.256 102.676C129.708 101.077 131.16 99.4306 132.05 97.4081C132.94 95.4327 133.174 93.034 132.191 91.1055C131.488 89.6945 130.177 88.6598 128.912 87.6721C118.325 79.3 107.739 70.9279 96.3563 63.6376C95.0447 62.791 93.6394 61.9443 92.0936 61.9443C90.4541 61.9443 89.002 62.791 87.6436 63.7316C85.442 65.1897 74.1998 75.9135 60.4749 86.7784" fill="#6676DE"/>
<path opacity="0.2" d="M39.958 176.802C46.2817 174.356 110.503 117.774 110.503 117.774C116.124 113.117 121.37 108.038 126.289 102.676C127.741 101.077 129.193 99.4305 130.083 97.4081C130.973 95.4326 131.207 93.0339 130.223 91.1055C129.521 89.6944 128.209 88.6597 126.944 87.672C116.358 79.2999 105.772 70.9278 94.3889 63.6375C93.3584 62.979 92.2342 62.2735 91.0631 62.0383C91.391 61.9442 91.7657 61.8972 92.1405 61.9442C93.6863 61.9913 95.0915 62.8379 96.4031 63.6375C107.739 70.9278 118.372 79.2999 128.959 87.672C130.223 88.6597 131.488 89.6944 132.238 91.1055C133.221 93.0339 132.987 95.4326 132.097 97.4081C131.207 99.3835 129.755 101.077 128.303 102.676C123.384 108.085 118.091 113.117 112.517 117.774C112.517 117.774 48.3428 174.356 41.9722 176.802C41.129 177.131 40.1453 177.178 39.1148 177.037C39.3959 176.99 39.6769 176.943 39.958 176.802Z" fill="#DFE4F2"/>
<path d="M34.5698 111.471L9.08752 131.884C7.77593 132.966 7.26066 134.753 7.82277 136.352C8.05698 137.011 8.33804 137.763 8.75961 138.751C11.0081 144.348 34.1482 172.333 41.8304 169.794C47.9199 167.771 68.109 151.168 68.109 151.168L108.066 115.563C113.64 109.543 121.275 104.839 125.866 97.8783C126.709 96.8906 126.662 95.3855 126.147 94.2097C125.585 93.0338 124.648 92.0931 123.664 91.1995C115.139 83.2977 103.1 75.0667 93.4976 68.4349C91.7176 67.212 89.1881 66.5535 86.0497 68.9523L60.6142 89.4592" fill="#DFE4F2"/>
<path d="M38.8806 104.793C28.2005 113.4 7.26187 129.015 5.62239 130.52C4.07659 131.931 0.797624 135.271 2.06237 140.539C3.0929 144.819 7.4961 150.275 14.8035 157.706C24.8278 167.959 35.9295 179.107 41.9253 176.802C48.249 174.356 112.47 117.774 112.47 117.774C118.091 113.118 123.338 108.038 128.256 102.676C129.708 101.077 131.16 99.4306 132.05 97.4081C132.94 95.4327 133.174 93.034 132.191 91.1055C131.488 89.6945 130.177 88.6598 128.912 87.6721C118.325 79.3 107.739 70.9279 96.3563 63.6376C95.0447 62.791 93.6394 61.9443 92.0936 61.9443C90.4541 61.9443 89.002 62.791 87.6436 63.7316C85.442 65.1897 52.2775 94.2098 38.5527 105.075" stroke="#444C73" stroke-width="0.9794" stroke-miterlimit="10"/>
<path d="M40.0972 106.862L9.08752 131.884C7.77593 132.966 7.26066 134.753 7.82277 136.352C8.05698 137.011 8.33803 137.763 8.75961 138.751C11.0081 144.348 34.1482 172.333 41.8304 169.794C47.9199 167.771 68.109 151.168 68.109 151.168L108.066 115.563C113.64 109.543 121.275 104.839 125.866 97.8783C126.709 96.8906 126.662 95.3855 126.147 94.2096C125.585 93.0338 124.648 92.0931 123.664 91.1995C115.139 83.2977 103.1 75.0667 93.4976 68.4349C91.7176 67.212 89.1881 66.5535 86.0497 68.9523L60.6142 89.4592L40.0972 106.862Z" stroke="#444C73" stroke-width="0.9448" stroke-miterlimit="10"/>
<path opacity="0.15" d="M28.9024 114.482L60.8021 89.1772L86.0033 69.0466C88.8607 66.9301 91.7181 66.7419 94.3413 68.5292L95.7934 69.5169C105.068 75.8666 116.638 83.8153 124.836 91.3408C125.96 92.3756 126.897 93.3163 127.506 94.5391C128.208 96.0913 128.115 97.7845 127.178 98.9133C124.32 103.24 120.198 106.768 116.264 110.155C113.828 112.224 111.298 114.388 109.144 116.692L68.7653 152.344C67.9221 153.003 48.2015 169.041 42.0183 171.064C41.6435 171.205 41.2219 171.252 40.8004 171.252C31.5255 171.252 9.83749 144.631 7.82326 139.645C7.44852 138.751 7.16747 137.952 6.88641 137.246C6.13693 135.412 6.74588 133.295 28.9024 114.482ZM8.15116 136.823C8.43221 137.528 8.71327 138.328 9.08801 139.175C10.1654 141.856 16.5828 150.228 23.5623 157.518C31.9003 166.172 38.6456 170.782 41.5967 169.794C47.5457 167.866 67.6879 151.451 67.8753 151.309L108.16 115.705C110.361 113.353 112.891 111.189 115.327 109.073C119.215 105.733 123.196 102.3 126.007 98.1137L126.054 98.0667C126.756 97.2671 126.616 95.9972 126.241 95.1506C125.773 94.1158 124.883 93.2692 123.899 92.3756C115.795 84.8971 104.272 76.9954 95.0439 70.6458L93.5918 69.658C91.4371 68.2 89.2355 68.3411 86.8933 70.1284L61.7858 90.212L9.18169 133.107C8.05746 134.001 7.63589 135.459 8.15116 136.823Z" fill="#4455B0"/>
<path d="M112.28 79.2059C112.515 79.2059 112.702 79.1119 112.843 78.9237C113.077 78.5945 112.983 78.1712 112.655 77.936L107.081 73.9851C106.753 73.75 106.331 73.844 106.097 74.1733C105.863 74.5025 105.957 74.9258 106.285 75.161L111.859 79.1119C111.999 79.1589 112.14 79.2059 112.28 79.2059Z" fill="#444C73"/>
<path d="M113.593 79.7234C113.64 79.5823 113.687 79.4883 113.78 79.3942L113.921 79.3001C114.014 79.2531 114.155 79.2061 114.296 79.2061H114.483C114.577 79.2061 114.67 79.2061 114.764 79.2531C114.858 79.3001 114.904 79.3472 114.998 79.3942C115.045 79.4412 115.092 79.5353 115.139 79.6294C115.186 79.7234 115.186 79.8175 115.186 79.9116C115.186 79.9586 115.186 80.0527 115.139 80.0997C115.092 80.2408 115.045 80.3349 114.951 80.4289L114.811 80.523C114.717 80.57 114.577 80.6171 114.436 80.6171H114.249C114.155 80.6171 114.061 80.6171 113.968 80.5701C113.874 80.523 113.827 80.476 113.733 80.4289C113.687 80.3819 113.64 80.2878 113.593 80.1938C113.546 80.0997 113.546 80.0056 113.546 79.9116C113.593 79.8645 113.593 79.7705 113.593 79.7234Z" fill="#444C73"/>
<path opacity="0.15" d="M8.76083 139.127C8.38609 138.187 8.05819 137.387 7.82397 136.729C7.21503 135.129 7.73029 133.295 9.08873 132.213L37.9905 109.214L60.4749 89.6473L84.8798 68.1526C88.0183 65.7539 90.5478 66.7886 93.2646 68.5759C98.9794 72.3387 105.303 76.948 111.393 81.5574C111.393 81.5574 118.747 87.2956 118.419 87.1545C115.374 85.4142 91.3909 70.5514 85.6762 74.0789C79.3524 77.9357 13.4451 132.448 11.103 135.788C8.85451 139.033 32.0884 162.785 42.8621 169.747C42.4406 169.935 42.0658 170.076 41.7379 170.217C34.0558 172.804 10.9624 144.724 8.76083 139.127Z" fill="#6676DE"/>
<path d="M89.2827 98.5372C86.2379 95.9033 83.1463 93.2224 80.1016 90.5884C78.79 89.4596 77.4315 88.2838 75.7452 87.6723C70.6862 85.7909 63.613 91.9995 59.8656 94.7275C54.5724 98.6313 49.7476 103.005 44.6418 107.097C41.5502 109.59 38.2244 111.754 35.3202 114.388C34.5707 115.046 33.868 115.799 33.6338 116.739C33.1654 118.574 35.9291 120.784 37.0065 122.054C41.5502 127.322 46.656 132.449 52.0429 137.011C54.8535 139.41 58.4603 142.749 61.5051 144.913C64.0346 146.7 65.4399 149.146 68.5783 146.983C71.9041 144.678 101.696 118.856 103.523 117.163C105.49 115.281 105.771 112.836 103.523 110.86C99.0259 107.05 93.7795 102.394 89.2827 98.5372Z" stroke="#444C73" stroke-width="0.7283" stroke-miterlimit="10" stroke-linecap="round"/>
<path opacity="0.64" d="M89.2827 98.5372C86.2379 95.9033 83.1463 93.2224 80.1016 90.5884C78.79 89.4596 77.4315 88.2838 75.7452 87.6723C70.6862 85.7909 63.613 91.9995 59.8656 94.7275C54.5724 98.6313 49.7476 103.005 44.6418 107.097C41.5502 109.59 38.2244 111.754 35.3202 114.388C34.5707 115.046 33.868 115.799 33.6338 116.739C33.1654 118.574 35.9291 120.784 37.0065 122.054C41.5502 127.322 46.656 132.449 52.0429 137.011C54.8535 139.41 58.4603 142.749 61.5051 144.913C64.0346 146.7 65.4399 149.146 68.5783 146.983C71.9041 144.678 101.696 118.856 103.523 117.163C105.49 115.281 105.771 112.836 103.523 110.86C99.0259 107.05 93.7795 102.394 89.2827 98.5372Z" fill="#6775E1"/>
<path d="M54.431 156.53C54.9931 156.483 55.5084 156.154 55.93 155.637C56.7263 154.602 56.7263 153.144 55.8831 152.344L35.7877 132.731C34.9914 131.931 33.6798 132.166 32.9303 133.201C32.134 134.236 32.134 135.694 32.9772 136.494L53.0726 156.107C53.4473 156.436 53.9626 156.577 54.431 156.53Z" fill="#6775E1" stroke="#444C73" stroke-width="0.4469" stroke-miterlimit="10" stroke-linecap="round"/>
<path d="M58.5531 151.122C58.6467 151.122 58.7873 151.027 58.881 150.933C59.0683 150.698 59.0683 150.416 58.881 150.228L40.9871 132.778C40.7998 132.59 40.5187 132.637 40.3782 132.872C40.1908 133.107 40.1908 133.39 40.3782 133.578L58.272 150.98C58.3188 151.075 58.4594 151.122 58.5531 151.122Z" fill="#6775E1" stroke="#444C73" stroke-width="0.4469" stroke-miterlimit="10" stroke-linecap="round"/>
<path d="M29.6049 121.819C30.9164 122.148 30.8696 123.7 30.7291 124.453C30.6822 124.641 30.8228 124.782 31.0101 124.735C31.6659 124.594 33.118 124.453 33.4459 125.911C34.3828 130.191 28.387 128.921 27.4033 128.686C27.3096 128.686 27.2627 128.592 27.2159 128.498C26.9817 127.416 25.6701 120.878 29.6049 121.819Z" fill="#6775E1" stroke="#444C73" stroke-width="0.481" stroke-miterlimit="10" stroke-linecap="round"/>
<path d="M109.002 110.201C109.704 110.107 110.454 109.731 110.969 109.12C112.047 107.897 112.047 106.203 111.016 105.31L84.9717 83.2037C83.9411 82.3101 82.208 82.5923 81.1774 83.8152C80.1 85.0381 80.1 86.7313 81.1306 87.625L107.175 109.731C107.643 110.107 108.299 110.295 109.002 110.201Z" fill="#6775E1" stroke="#444C73" stroke-width="0.5511" stroke-miterlimit="10" stroke-linecap="round"/>
<path d="M114.53 103.852C114.67 103.852 114.858 103.758 114.951 103.617C115.186 103.334 115.186 103.005 114.951 102.817L91.7643 83.1568C91.5301 82.9687 91.1553 83.0157 90.9211 83.2979C90.6869 83.5801 90.6869 83.9094 90.9211 84.0975L114.108 103.758C114.249 103.805 114.389 103.852 114.53 103.852Z" fill="#6775E1" stroke="#444C73" stroke-width="0.5511" stroke-miterlimit="10" stroke-linecap="round"/>
<path d="M60.6152 57.9931C60.2873 57.3347 58.1326 48.6803 57.4299 48.3041C55.6499 47.3634 51.2467 50.938 51.1062 52.302C50.9657 53.5719 54.6662 62.6966 55.1815 64.3428L58.9289 66.2241L60.6152 57.9931Z" fill="white"/>
<path d="M80.428 119.373C80.428 119.373 82.5828 117.397 82.5359 116.221C82.7233 116.927 77.6643 106.909 76.2122 101.029C75.1348 96.6082 75.369 94.4446 75.978 91.2933C76.6338 88.142 77.1022 85.5081 76.9148 82.639C76.7275 79.7699 78.7417 74.0317 78.7417 74.0317L79.538 70.0809C79.538 70.0809 80.5217 64.5778 78.367 63.7312C76.2122 62.8846 75.1817 64.813 75.1817 64.813L73.4485 66.8825L71.7622 71.9622L69.6074 75.3017C69.6074 75.3017 60.8947 61.2384 60.2858 60.1566C60.2858 60.1096 58.0373 64.4367 58.0373 64.4367C58.0373 64.4367 53.4936 61.991 51.5262 65.6596C50.3552 67.8232 50.8704 68.5758 50.8704 68.5758C50.8704 68.5758 47.8257 69.9397 44.9683 72.7618C44.5935 73.3262 44.0314 74.5491 43.8909 75.4428C43.8909 75.4428 36.5366 77.8885 34.8503 79.7229C34.8503 79.7229 34.4756 81.6513 34.3819 83.1093C34.2414 87.2013 35.5061 90.7759 35.5061 90.7759C35.5998 92.0929 38.8319 97.9251 38.8319 97.9251L40.0967 100.606C40.7056 101.876 41.4083 103.099 42.1577 104.275L43.6098 106.532L46.3736 110.154L52.5099 117.256C52.5099 117.256 56.8663 123.747 57.4284 126.428C57.9905 129.109 58.4121 129.297 59.2084 129.109C60.0047 128.921 71.7622 125.393 74.7133 123.135" fill="white"/>
<path d="M79.5847 67.8701C80.0063 72.4324 77.3363 77.0418 76.9615 81.6041C76.821 83.2033 77.0084 84.8024 76.8678 86.4016C76.7273 88.0478 76.212 89.694 75.9778 91.3402C75.5094 94.1152 75.6031 98.3013 75.8841 99.7593C76.6336 103.522 79.9126 112.553 82.4889 116.268C82.7231 116.645 82.4889 116.974 82.2547 117.35C77.4768 124.358 59.2082 129.814 58.5993 129.062C57.8966 128.168 57.7093 126.898 57.2877 125.863C56.7724 124.546 56.2103 123.276 55.5545 122.054C53.2592 117.632 49.8397 113.964 46.6076 110.248C43.9376 107.144 41.7828 103.71 39.8623 100.089C38.5975 97.6898 37.1923 95.3381 36.1617 92.8453C34.7096 89.2707 34.1007 84.7554 34.3817 80.8986C34.5222 78.8761 41.9702 76.6185 43.7034 75.7248C45.4365 74.8782 46.7481 75.0193 47.7318 76.3363C48.7155 77.6532 53.3529 81.51 52.744 82.9211C52.135 84.3321 51.3855 84.3791 48.856 84.2851C46.3265 84.191 43.797 80.6634 43.797 80.6634" stroke="#444C73" stroke-width="0.6935" stroke-miterlimit="10" stroke-linecap="round"/>
<path d="M78.6942 64.0604C79.4905 64.5307 79.8652 65.5655 79.8652 66.5062C79.8184 67.4469 78.9752 70.0337 78.2257 70.2689C77.8042 70.41 77.2889 70.363 76.8673 70.2689C76.4457 70.1749 76.071 70.0338 75.7899 69.7515C75.4152 69.3282 75.3215 68.7168 75.3215 68.1524C75.2747 67.4939 75.3215 66.7884 75.3684 66.1299C75.462 65.2833 75.2278 65.0011 75.7431 64.3426C76.5863 63.3549 77.9447 63.6371 78.6942 64.0604Z" stroke="#444C73" stroke-width="0.6935" stroke-miterlimit="10" stroke-linecap="round"/>
<path d="M75.6973 64.3896C74.7604 65.1892 74.0109 65.8477 73.402 66.9295C72.6525 68.2935 72.512 69.8927 71.9967 71.3507C71.1067 73.9376 69.1393 76.0071 67.4998 78.1707C62.5345 84.6144 59.5835 92.8924 60.7545 100.982" stroke="#444C73" stroke-width="0.6935" stroke-miterlimit="10" stroke-linecap="round"/>
<path opacity="0.15" d="M34.4291 82.5921C34.476 81.134 34.8975 79.817 34.8975 79.817C34.9444 79.77 34.9912 79.6759 35.0849 79.6289C36.6307 88.5184 41.3618 96.8434 48.2008 102.723C51.714 105.733 55.883 108.273 57.8503 112.412C59.0683 114.952 59.5367 118.15 61.7851 119.796C63.5183 121.066 65.9541 121.066 67.9683 120.266C69.9825 119.42 71.5752 117.915 72.9805 116.269C74.3389 114.716 75.6505 112.976 77.6179 112.365C78.6016 112.083 79.5852 112.13 80.5221 112.365C81.5995 114.622 82.3958 116.222 82.4895 116.269C82.5363 117.444 80.3816 119.373 80.3816 119.373L74.8542 123.136C71.9031 125.393 60.1456 128.921 59.3493 129.109C58.553 129.297 58.1314 129.109 57.5693 126.428C57.0072 123.747 52.6508 117.256 52.6508 117.256L46.5145 110.154L43.7508 106.532L42.2987 104.275C41.5492 103.099 40.8465 101.876 40.2376 100.606L38.9728 97.9252C38.9728 97.9252 35.6939 92.093 35.647 90.776C35.6002 90.8701 34.2886 86.684 34.4291 82.5921Z" fill="#4C5FCE"/>
<path opacity="0.15" d="M61.0352 91.1992C60.2389 94.6797 59.6768 97.831 60.3794 101.359C58.3652 94.4916 56.9599 87.8598 57.522 80.7105C57.6626 78.8762 57.9905 76.9948 58.7868 75.3486C59.2552 74.455 59.8173 73.6084 60.3794 72.7618C61.8784 70.5982 62.9089 66.6943 64.4547 64.5308C64.9231 66.9295 69.5605 75.3957 69.5605 75.3957C69.4669 76.2893 66.7032 78.9703 66.2347 79.7228C63.8458 83.3445 61.9721 86.9661 61.0352 91.1992Z" fill="#4C5FCE"/>
<path d="M79.7266 52.584C79.7266 52.584 77.2908 61.8498 71.9039 69.1871C67.1259 75.6778 68.0159 75.4426 68.0159 75.4426C68.0159 75.4426 57.4764 90.4466 53.4011 92.1868C53.4948 92.3279 52.5579 93.3627 51.6679 93.1275C50.7779 92.8923 47.4989 88.9415 47.4989 88.9415L44.5479 85.9313L46.7026 83.3914C46.7026 83.3914 48.9042 84.4262 50.2158 84.2851C51.5274 84.144 51.949 84.2851 52.5579 83.3914C53.1669 82.5448 52.4642 81.416 51.9021 80.6634C51.3869 79.9109 49.279 77.7003 49.279 77.7003C49.279 77.7003 51.1058 74.8312 51.1995 74.8312C51.2932 74.8312 52.4642 75.6778 53.7758 76.0541C55.0406 76.4774 57.6169 76.8537 58.8817 76.1952C60.1464 75.5367 60.0059 74.6901 59.959 73.9375C59.9122 73.185 58.6943 71.0685 58.6943 71.0685C58.6943 71.0685 59.7717 70.6452 60.5211 69.9867C61.2706 69.3752 61.3643 67.4468 60.4275 66.4121C59.4906 65.3773 58.0853 64.5307 58.0853 64.5307C58.0853 64.5307 61.3643 58.3692 62.0669 53.1955C62.1138 52.6781 72.747 55.265 76.4476 51.8785C76.4944 51.8315 77.4313 52.3488 78.6023 52.4429C79.7266 52.584 79.7266 52.584 79.7266 52.584Z" fill="#6676DE"/>
<path d="M60.709 58.2752C60.3811 57.6167 58.3669 49.0565 57.6642 48.6802C55.8842 47.7395 50.9658 50.1853 50.8252 51.5493C50.6847 52.8192 54.5258 62.2261 55.041 63.8723" stroke="#444C73" stroke-width="0.6935" stroke-miterlimit="10" stroke-linecap="round"/>
<path d="M31.5718 0.141767C31.5718 0.141767 33.0707 -0.0934043 33.7265 3.01085C34.3823 6.11511 36.1623 23.3767 35.4129 31.2314C34.9913 35.4174 34.6165 51.1739 32.3213 56.3947C31.8528 57.4765 31.2439 57.6176 30.6349 57.6646C26.2317 58.0409 26.3723 38.4276 26.3723 38.4276L26.9344 18.0148C26.9344 17.1211 26.9812 16.1804 27.0749 15.2868C27.3091 13.0291 27.356 8.27869 27.4965 7.43207C27.637 6.30325 28.1523 0.141767 31.5718 0.141767Z" fill="#5362B7"/>
<path d="M79.7266 52.5842C79.7266 52.5842 76.3539 61.7089 71.6228 69.5165C68.906 73.9848 67.8754 75.5369 67.8754 75.5369C67.8754 75.5369 57.6169 89.8824 53.5416 92.2811C53.3074 92.3281 52.1832 93.504 51.3869 93.1748C50.4969 92.8455 47.6863 89.365 47.6863 89.365L44.6416 86.0726L46.5621 83.5327C46.5621 83.5327 49.0448 84.4264 50.3563 84.2853C51.6679 84.1442 51.8553 84.3794 52.4174 83.5327C53.0264 82.6861 52.5111 81.6043 51.9958 80.8518C51.4806 80.0992 49.279 77.7005 49.279 77.7005C49.279 77.7005 51.1058 74.8314 51.1995 74.8314C51.2932 74.8314 52.6516 75.678 53.9164 76.1013C55.1811 76.5246 57.2422 77.0891 58.5538 76.4306C59.8654 75.7721 60.0527 74.4551 60.0059 73.7026C59.959 72.95 58.6006 71.1627 58.6006 71.1627C58.6006 71.1627 59.6311 70.7394 60.3806 70.128C61.1301 69.5165 61.5517 67.6822 60.6148 66.6945C59.678 65.7068 58.0854 64.578 58.0854 64.578C58.0854 64.578 61.7859 58.4635 62.4885 53.2897C62.5354 52.7724 72.7002 55.2181 76.4007 51.8317C76.4476 51.7846 77.6655 52.3961 78.7897 52.5372C79.305 52.7253 79.2113 52.6783 79.7266 52.5842Z" fill="#6676DE"/>
<path d="M60.4277 25.3049L59.2098 39.0859L57.1956 52.2084C57.1956 52.2084 51.9492 51.9262 46.4687 54.0428C41.035 56.1593 35.5544 58.9343 30.5891 57.7585C30.5422 57.7115 32.3691 58.1348 33.1654 53.008C33.9617 47.8813 35.7418 37.1105 35.4139 30.4786C35.086 23.8468 35.3202 15.7569 34.9454 13.6404C34.5707 11.5238 33.9149 4.23353 33.7744 3.48099C33.6338 2.72844 33.2123 0.564863 31.7133 0.188589C30.2143 -0.140651 34.6175 0.470794 36.3039 3.15175C38.7865 7.05559 42.3934 13.7344 45.8597 16.6976C49.3261 19.6608 54.9472 23.1883 54.9472 23.1883L60.4277 25.3049Z" fill="#6676DE"/>
<path d="M63.9404 25.6807C63.9404 25.6807 80.4758 26.9976 79.9137 37.8155C79.2579 50.0914 76.4005 52.0669 75.0889 52.6313C73.7774 53.1957 69.9363 53.9012 66.6104 53.666C63.2846 53.4309 60.6146 52.6313 60.6146 52.6313C60.6146 52.6313 63.2846 36.4985 63.4252 35.1345C63.5188 33.7706 63.9404 25.6807 63.9404 25.6807Z" fill="#E69784"/>
<path d="M62.3944 23.9403C62.3944 23.9403 64.5492 23.8933 63.8934 30.1018C63.2376 36.3573 60.6144 52.6312 60.6144 52.6312C60.6144 52.6312 60.427 53.9011 58.7875 53.76C56.3517 53.5248 57.8975 47.7866 57.8975 47.7866L60.427 25.3513C60.427 25.3043 60.7549 23.3759 62.3944 23.9403Z" fill="#4C5FCE"/>
<path opacity="0.2" d="M66.5637 30.8076C65.6268 30.6665 64.6431 30.5253 63.7063 30.6194C63.8468 28.1736 63.9873 25.6338 63.9873 25.6338C63.9873 25.6338 80.5227 27.0919 79.9606 37.7686C79.8669 39.2737 79.7732 40.5907 79.6327 41.7665C79.539 42.378 78.649 42.378 78.6022 41.7195V41.6725C78.4148 39.1796 77.7122 36.6398 76.0727 34.7584C73.6837 32.2186 69.9832 31.372 66.5637 30.8076Z" fill="#DFE4F2"/>
<path opacity="0.15" d="M31.5721 0.14209C30.9163 2.30566 30.1199 4.89255 29.7452 6.49171C28.9957 9.59597 28.5741 48.2581 30.8226 50.845C31.9 52.0679 33.1179 50.2336 34.1016 48.0229C33.68 51.4564 33.1179 54.6077 32.3215 56.4421C31.8531 57.5239 31.2442 57.665 30.6352 57.712C26.232 58.0883 26.3725 38.475 26.3725 38.475L26.9346 18.0621C26.9346 17.1685 26.9815 16.2278 27.0752 15.3341C27.3094 13.0765 27.3562 8.32605 27.4968 7.47943C27.6373 6.30357 28.1525 0.14209 31.5721 0.14209Z" fill="#4C5FCE"/>
<path d="M57.1953 52.2081C51.8084 51.5025 46.1405 54.2305 41.0346 56.1589C37.6151 57.4759 33.7272 58.5577 30.1203 57.664" stroke="#444C73" stroke-width="0.6935" stroke-miterlimit="10" stroke-linecap="round"/>
<path d="M31.2919 0.14209C33.2592 0.471329 34.9924 1.36498 36.2103 2.91711C37.4282 4.46924 38.2245 6.30357 39.2082 8.04384C43.6583 15.9926 51.8557 22.9067 60.6152 25.3054" stroke="#444C73" stroke-width="0.6935" stroke-miterlimit="10" stroke-linecap="round"/>
<path d="M60.6142 52.6313C63.7995 53.4779 66.9848 53.9482 70.2638 53.666C72.6527 53.4309 75.7912 52.9605 77.2901 50.7969C77.9459 49.8092 78.3675 48.6804 78.6486 47.5045C79.4449 44.4944 79.8196 41.3901 79.9133 38.2858C79.9601 35.9812 79.398 34.0528 78.4143 32.4536C75.4633 27.6561 68.7648 25.8688 63.8932 25.6807" stroke="#444C73" stroke-width="0.6935" stroke-miterlimit="10" stroke-linecap="round"/>
<path d="M79.5854 35.1816C81.8807 35.8401 84.4102 36.6397 84.457 38.1448C84.457 39.6499 84.1291 41.1079 83.7544 42.519C83.2391 44.5885 82.7239 46.658 82.2086 48.7275C81.787 50.3267 81.1312 52.208 79.4917 52.5843C78.508 52.8195 77.4775 52.3021 76.5875 51.8317" stroke="#444C73" stroke-width="0.6935" stroke-miterlimit="10" stroke-linecap="round"/>
<path d="M82.3962 48.1632C82.9583 48.3044 83.5672 48.4455 84.1294 48.5866C84.5041 48.6806 84.9725 48.7747 85.3004 48.5866C85.6283 48.3984 85.7688 48.0221 85.8625 47.6459C86.1436 46.7522 86.3778 45.9056 86.6588 45.012C86.8462 44.4005 87.0336 43.742 86.8462 43.1306C86.6588 42.6132 84.6915 41.6725 84.1294 41.6255" stroke="#444C73" stroke-width="0.6935" stroke-miterlimit="10" stroke-linecap="round"/>
<path d="M49.2792 77.6535L50.9187 75.0196C51.0592 74.7844 51.3871 74.7374 51.5745 74.9255C52.4645 75.7721 55.1814 76.8069 56.8209 76.6187C58.9288 76.4306 60.4277 75.4899 59.7251 73.1382C59.0225 70.7865 56.3993 69.3754 54.2914 68.6229C50.3566 67.2589 43.7518 73.7496 43.9392 75.5369" stroke="#444C73" stroke-width="0.6935" stroke-miterlimit="10" stroke-linecap="round"/>
<path d="M44.7344 79.9111C43.8912 80.5226 42.9544 81.087 41.9707 81.5103" stroke="#444C73" stroke-width="0.6935" stroke-miterlimit="10" stroke-linecap="round"/>
<path d="M50.9175 68.67C50.9175 68.67 50.6364 66.4594 52.3228 64.8132C52.9786 64.1548 54.0091 63.8726 55.0865 63.8726C55.6954 63.8726 56.3512 63.9666 57.007 64.1548C57.3818 64.2488 57.7565 64.3899 58.0844 64.5781C58.7402 64.8603 59.3023 65.2836 59.7707 65.7539C60.2392 66.2243 60.6139 66.6946 60.8481 67.1179C62.5813 70.1281 58.506 71.1158 58.506 71.1158" stroke="#444C73" stroke-width="0.6935" stroke-miterlimit="10" stroke-linecap="round"/>
<path d="M56.9598 64.1548C56.6319 64.437 56.0697 65.0955 55.8824 65.5658C55.7887 65.754 55.7887 65.9891 55.8355 66.1773C55.8355 66.2243 55.8824 66.2713 55.8824 66.3184C55.9761 66.5065 56.1166 66.6476 56.2571 66.7417C57.2408 67.6353 59.0208 68.7642 59.0677 68.7642C59.1614 68.7642 59.2082 68.7171 59.3019 68.6701C59.7703 68.2938 60.3324 67.4472 60.8008 67.0239C60.8477 66.9769 60.8477 66.9769 60.8945 66.9769" stroke="#444C73" stroke-width="0.6935" stroke-miterlimit="10" stroke-linecap="round"/>
<path d="M50.9188 79.582C50.4504 79.8642 50.0757 80.2875 49.7478 80.7109C49.7009 80.7579 49.7009 80.8049 49.6541 80.852C49.6541 80.946 49.7009 81.0401 49.7009 81.1342C50.263 82.2159 51.1531 83.1096 52.1836 83.627" stroke="#444C73" stroke-width="0.6935" stroke-miterlimit="10" stroke-linecap="round"/>
<path d="M62.0664 53.0073C62.0664 53.0073 60.1927 61.9438 58.038 64.5777" stroke="#444C73" stroke-width="0.6935" stroke-miterlimit="10" stroke-linecap="round"/>
<path d="M68.9517 74.0322C69.5138 75.2081 69.5607 75.5844 69.748 75.3022" stroke="#444C73" stroke-width="0.6935" stroke-miterlimit="10" stroke-linecap="round"/>
<path d="M59.1152 71.8211L57.101 73.9376L53.4473 71.5859C53.4473 71.5859 54.6184 69.2342 55.5552 69.1401" stroke="#444C73" stroke-width="0.6935" stroke-miterlimit="10" stroke-linecap="round"/>
<path d="M35.2734 23.2821C35.2734 23.2821 24.9681 22.1063 24.0781 30.6195C23.0007 41.3433 34.805 40.0734 34.805 40.0734L35.2734 23.2821Z" fill="#E69784"/>
<path opacity="0.15" d="M24.1247 30.6661C24.2652 29.2551 24.6868 28.0792 25.2489 27.1855C25.3895 28.9728 25.1553 30.8072 25.7642 32.4534C26.3732 34.0996 27.8253 35.2754 29.4179 35.8869C31.1511 36.5454 33.0716 36.7805 34.9453 36.4983L34.8516 40.12C34.8048 40.0729 23.0005 41.3428 24.1247 30.6661Z" fill="#DD4E2A"/>
<path d="M35.459 23.376C32.2269 22.6705 27.6831 23.9404 25.6221 26.5273C23.561 29.1142 23.6547 34.0057 25.4815 36.7337C27.4958 39.7439 30.9621 39.885 34.569 40.3083" stroke="#444C73" stroke-width="0.6935" stroke-miterlimit="10" stroke-linecap="round"/>
<path opacity="0.15" d="M58.1777 45.7172L57.194 52.208C57.194 52.208 51.9477 51.9258 46.4671 54.0423C41.0334 56.1588 35.5528 58.9339 30.5875 57.758C30.5407 57.711 32.3675 58.1343 33.1639 53.0075C33.3044 52.208 33.4449 51.2673 33.5854 50.2325C34.9907 50.5147 36.4428 50.5147 37.8481 50.3266C42.0639 49.6211 45.6708 46.8461 49.7929 45.7172C52.5098 44.9647 55.4609 44.9647 58.1777 45.7172Z" fill="#4C5FCE"/>
<path d="M26.6078 25.4935C27.3104 7.85571 27.5915 0.189124 31.292 0.14209C32.0415 0.14209 32.791 0.565398 33.1657 1.22388C33.5405 1.88236 33.681 2.68194 33.8215 3.43449C36.3042 20.3198 36.0231 37.5813 32.9783 54.3726C32.8378 55.1721 32.6505 55.9717 32.2289 56.6772C31.7604 57.3357 30.9641 57.8531 30.1678 57.712C29.2778 57.5239 28.622 56.6772 28.3878 55.7836C26.7483 50.2336 26.8888 43.6488 26.3736 37.7695" stroke="#444C73" stroke-width="0.6935" stroke-miterlimit="10" stroke-linecap="round"/>
<path opacity="0.2" d="M36.3038 3.1518C38.7865 7.05565 42.3933 13.7345 45.8597 16.6977C49.326 19.6608 54.9471 23.1884 54.9471 23.1884L60.3809 25.3049L59.5845 34.6647C57.055 35.3703 54.104 34.6647 52.3708 32.6893C49.7008 29.7261 50.0755 24.8346 47.3118 21.9185C44.7355 19.2375 40.1449 19.0964 37.9433 16.0862C36.0696 13.4993 36.6786 9.92473 35.8822 6.82047C35.4607 5.22131 34.6643 3.76325 33.5401 2.58739C33.2591 1.64671 32.7438 0.470853 31.6664 0.188648C30.2143 -0.187626 34.6175 0.423819 36.3038 3.1518Z" fill="#DFE4F2"/>
<path d="M60.4734 53.0548C60.0518 54.1836 57.007 54.1836 57.4755 51.3615C58.4592 45.153 59.8176 34.3822 60.4734 26.7156C60.5671 25.6338 60.5671 23.9406 61.6444 23.8936C62.6281 23.8465 63.3308 24.1758 63.7055 24.9283C64.0803 25.6809 64.0803 26.5745 64.0334 27.3741C63.7992 35.6051 60.7544 52.3022 60.4734 53.0548Z" stroke="#444C73" stroke-width="0.6935" stroke-miterlimit="10" stroke-linecap="round"/>
<path opacity="0.15" d="M68.718 49.8094C71.9033 49.9976 74.8544 48.9158 77.337 46.8933C77.6649 46.6111 78.3207 46.0467 78.9297 45.8115C77.7586 51.0794 76.0723 52.2552 75.0886 52.6315C73.777 53.1959 69.9359 53.9014 66.6101 53.6662C63.2843 53.4311 60.6143 52.6315 60.6143 52.6315C60.6143 52.6315 61.0359 50.1387 61.5511 46.9874C62.3006 47.4577 63.0033 47.9751 63.7996 48.3984C65.2985 49.245 66.9849 49.7154 68.718 49.8094Z" fill="#DD4E2A"/>
<g opacity="0.15">
<path opacity="0.15" d="M64.2675 55.9235C64.2675 55.9235 63.0028 60.6739 60.567 66.6473C60.5201 66.5532 60.4733 66.5062 60.3796 66.4121C59.4427 65.4244 58.0375 64.5307 58.0375 64.5307C58.0375 64.5307 61.3164 58.3693 62.0191 53.1955C62.0659 52.6781 72.6992 55.265 76.3997 51.8785C76.4465 51.8315 77.1492 52.2078 78.086 52.3959C78.1797 52.49 78.2266 52.537 78.2266 52.537C78.2266 52.537 75.2286 56.8171 70.357 56.5349C65.5323 56.2527 64.2675 55.9235 64.2675 55.9235Z" fill="#4C5FCE"/>
<path opacity="0.15" d="M51.8543 80.6164C51.339 79.8639 49.2311 77.6533 49.2311 77.6533C49.2311 77.6533 51.058 74.7842 51.1517 74.7842C51.2453 74.7842 52.4164 75.6308 53.728 76.0071C54.2433 76.1952 54.9927 76.3363 55.7891 76.4304C54.7585 78.2177 53.6343 79.9579 52.4164 81.5571C52.2759 81.2279 52.0885 80.8986 51.8543 80.6164Z" fill="#4C5FCE"/>
<path opacity="0.15" d="M44.5001 85.9315L46.6549 83.3916C46.6549 83.3916 48.8565 84.4264 50.1681 84.2853C50.2149 84.2853 50.2618 84.2853 50.3086 84.2853C49.5591 85.1319 48.7628 85.8844 47.9665 86.5899C47.217 87.2014 46.4675 87.3425 45.7649 87.2955L44.5001 85.9315Z" fill="#4C5FCE"/>
</g>
<path opacity="0.2" d="M50.7778 89.8822C51.5741 89.7411 52.5109 90.1644 53.2136 89.7411C54.0099 89.2237 53.8694 88.0479 53.8225 87.1072C53.7757 85.5551 54.4315 83.8618 55.8367 83.2974C56.5394 83.0152 57.2889 83.0152 57.9915 82.9212C59.5373 82.639 60.9426 81.7453 61.7857 80.4283C63.1442 78.2648 62.91 75.4898 63.0505 72.9029C63.1442 70.7863 63.5657 68.6698 64.2215 66.6473C64.5963 65.5655 65.0179 64.4837 65.7205 63.5901C67.1258 61.7558 69.4211 60.768 71.6695 60.3447C73.0748 60.0625 74.5737 60.0155 75.979 60.2507C76.3069 60.2977 76.3069 60.2977 76.6816 60.3447C75.5574 62.9316 74.3395 65.2363 71.9505 68.999C67.641 75.866 67.9221 75.4427 67.9221 75.4427C67.9221 75.4427 57.1952 89.9763 53.3073 92.1869C53.4009 92.328 52.4641 93.3628 51.5741 93.1276C51.1525 92.9865 50.2156 92.0928 49.3256 91.1051C49.6535 90.5407 50.122 90.0233 50.7778 89.8822Z" fill="#DFE4F2"/>
<path d="M79.4922 52.5845C77.4311 64.4371 58.6005 89.1301 53.2604 92.3284C51.8083 90.4 47.6862 86.0258 45.8125 84.5207" stroke="#444C73" stroke-width="0.6935" stroke-miterlimit="10" stroke-linecap="round"/>
</g>
<defs>
<clipPath id="clip0">
<rect width="135" height="180" fill="white" transform="matrix(-1 0 0 1 135 0)"/>
</clipPath>
</defs>
</svg>
