<svg width="33" height="32" viewBox="0 0 33 32" fill="none" xmlns="http://www.w3.org/2000/svg">
<path d="M28.875 7.5986H3.09375V6.58188L25.7812 4.79244V6.58188H28.875V3.5317C28.875 1.29491 27.0373 -0.274917 24.7933 0.0402678L4.08375 2.95623C1.83769 3.27345 0 5.36181 0 7.5986V27.9331C0 29.0117 0.434597 30.0461 1.20818 30.8088C1.98177 31.5715 3.03098 32 4.125 32H28.875C29.969 32 31.0182 31.5715 31.7918 30.8088C32.5654 30.0461 33 29.0117 33 27.9331V11.6655C33 10.5869 32.5654 9.55246 31.7918 8.78977C31.0182 8.02708 29.969 7.5986 28.875 7.5986ZM25.7812 21.845C25.3748 21.8448 24.9724 21.7658 24.597 21.6123C24.2216 21.4588 23.8805 21.234 23.5932 20.9506C23.3059 20.6671 23.0781 20.3307 22.9227 19.9605C22.7673 19.5902 22.6874 19.1934 22.6875 18.7927C22.6876 18.3921 22.7678 17.9953 22.9235 17.6252C23.0791 17.255 23.3072 16.9188 23.5947 16.6355C23.8821 16.3523 24.2234 16.1276 24.5989 15.9744C24.9744 15.8212 25.3769 15.7424 25.7833 15.7426C26.6041 15.7428 27.3912 16.0646 27.9714 16.637C28.5515 17.2094 28.8773 17.9855 28.8771 18.7948C28.8768 19.604 28.5505 20.38 27.9699 20.952C27.3893 21.524 26.602 21.8452 25.7812 21.845Z" fill="white"/>
</svg>


