<svg width="56" height="56" viewBox="0 0 56 56" fill="none" xmlns="http://www.w3.org/2000/svg">
<rect x="0.5" y="0.5" width="55" height="55" rx="7.5" fill="white" stroke="#E8E8E8"/>
<path fill-rule="evenodd" clip-rule="evenodd" d="M20 29.3334C19.2667 29.3334 18.6667 29.9334 18.6667 30.6667C18.6667 31.4 19.2667 32 20 32C20.7334 32 21.3334 31.4 21.3334 30.6667C21.3334 29.9334 20.7334 29.3334 20 29.3334ZM20 34.6667C19.2667 34.6667 18.6667 35.2667 18.6667 36C18.6667 36.7334 19.2667 37.3334 20 37.3334C20.7334 37.3334 21.3334 36.7334 21.3334 36C21.3334 35.2667 20.7334 34.6667 20 34.6667ZM20 24C19.2667 24 18.6667 24.6 18.6667 25.3334C18.6667 26.0667 19.2667 26.6667 20 26.6667C20.7334 26.6667 21.3334 26.0667 21.3334 25.3334C21.3334 24.6 20.7334 24 20 24ZM16 24.6667C15.6267 24.6667 15.3334 24.96 15.3334 25.3334C15.3334 25.7067 15.6267 26 16 26C16.3734 26 16.6667 25.7067 16.6667 25.3334C16.6667 24.96 16.3734 24.6667 16 24.6667ZM20 18.6667C19.2667 18.6667 18.6667 19.2667 18.6667 20C18.6667 20.7334 19.2667 21.3334 20 21.3334C20.7334 21.3334 21.3334 20.7334 21.3334 20C21.3334 19.2667 20.7334 18.6667 20 18.6667ZM40 26C40.3734 26 40.6667 25.7067 40.6667 25.3334C40.6667 24.96 40.3734 24.6667 40 24.6667C39.6267 24.6667 39.3334 24.96 39.3334 25.3334C39.3334 25.7067 39.6267 26 40 26ZM30.6667 21.3334C31.4 21.3334 32 20.7334 32 20C32 19.2667 31.4 18.6667 30.6667 18.6667C29.9334 18.6667 29.3334 19.2667 29.3334 20C29.3334 20.7334 29.9334 21.3334 30.6667 21.3334ZM30.6667 16.6667C31.04 16.6667 31.3334 16.3734 31.3334 16C31.3334 15.6267 31.04 15.3334 30.6667 15.3334C30.2934 15.3334 30 15.6267 30 16C30 16.3734 30.2934 16.6667 30.6667 16.6667ZM16 30C15.6267 30 15.3334 30.2934 15.3334 30.6667C15.3334 31.04 15.6267 31.3334 16 31.3334C16.3734 31.3334 16.6667 31.04 16.6667 30.6667C16.6667 30.2934 16.3734 30 16 30ZM25.3334 39.3334C24.96 39.3334 24.6667 39.6267 24.6667 40C24.6667 40.3734 24.96 40.6667 25.3334 40.6667C25.7067 40.6667 26 40.3734 26 40C26 39.6267 25.7067 39.3334 25.3334 39.3334ZM25.3334 16.6667C25.7067 16.6667 26 16.3734 26 16C26 15.6267 25.7067 15.3334 25.3334 15.3334C24.96 15.3334 24.6667 15.6267 24.6667 16C24.6667 16.3734 24.96 16.6667 25.3334 16.6667ZM25.3334 21.3334C26.0667 21.3334 26.6667 20.7334 26.6667 20C26.6667 19.2667 26.0667 18.6667 25.3334 18.6667C24.6 18.6667 24 19.2667 24 20C24 20.7334 24.6 21.3334 25.3334 21.3334ZM25.3334 28.6667C24.2267 28.6667 23.3334 29.56 23.3334 30.6667C23.3334 31.7734 24.2267 32.6667 25.3334 32.6667C26.44 32.6667 27.3334 31.7734 27.3334 30.6667C27.3334 29.56 26.44 28.6667 25.3334 28.6667ZM36 29.3334C35.2667 29.3334 34.6667 29.9334 34.6667 30.6667C34.6667 31.4 35.2667 32 36 32C36.7334 32 37.3334 31.4 37.3334 30.6667C37.3334 29.9334 36.7334 29.3334 36 29.3334ZM36 34.6667C35.2667 34.6667 34.6667 35.2667 34.6667 36C34.6667 36.7334 35.2667 37.3334 36 37.3334C36.7334 37.3334 37.3334 36.7334 37.3334 36C37.3334 35.2667 36.7334 34.6667 36 34.6667ZM36 24C35.2667 24 34.6667 24.6 34.6667 25.3334C34.6667 26.0667 35.2667 26.6667 36 26.6667C36.7334 26.6667 37.3334 26.0667 37.3334 25.3334C37.3334 24.6 36.7334 24 36 24ZM36 18.6667C35.2667 18.6667 34.6667 19.2667 34.6667 20C34.6667 20.7334 35.2667 21.3334 36 21.3334C36.7334 21.3334 37.3334 20.7334 37.3334 20C37.3334 19.2667 36.7334 18.6667 36 18.6667ZM40 30C39.6267 30 39.3334 30.2934 39.3334 30.6667C39.3334 31.04 39.6267 31.3334 40 31.3334C40.3734 31.3334 40.6667 31.04 40.6667 30.6667C40.6667 30.2934 40.3734 30 40 30ZM30.6667 34.6667C29.9334 34.6667 29.3334 35.2667 29.3334 36C29.3334 36.7334 29.9334 37.3334 30.6667 37.3334C31.4 37.3334 32 36.7334 32 36C32 35.2667 31.4 34.6667 30.6667 34.6667ZM30.6667 39.3334C30.2934 39.3334 30 39.6267 30 40C30 40.3734 30.2934 40.6667 30.6667 40.6667C31.04 40.6667 31.3334 40.3734 31.3334 40C31.3334 39.6267 31.04 39.3334 30.6667 39.3334ZM25.3334 23.3334C24.2267 23.3334 23.3334 24.2267 23.3334 25.3334C23.3334 26.44 24.2267 27.3334 25.3334 27.3334C26.44 27.3334 27.3334 26.44 27.3334 25.3334C27.3334 24.2267 26.44 23.3334 25.3334 23.3334ZM25.3334 34.6667C24.6 34.6667 24 35.2667 24 36C24 36.7334 24.6 37.3334 25.3334 37.3334C26.0667 37.3334 26.6667 36.7334 26.6667 36C26.6667 35.2667 26.0667 34.6667 25.3334 34.6667ZM30.6667 28.6667C29.56 28.6667 28.6667 29.56 28.6667 30.6667C28.6667 31.7734 29.56 32.6667 30.6667 32.6667C31.7734 32.6667 32.6667 31.7734 32.6667 30.6667C32.6667 29.56 31.7734 28.6667 30.6667 28.6667ZM30.6667 23.3334C29.56 23.3334 28.6667 24.2267 28.6667 25.3334C28.6667 26.44 29.56 27.3334 30.6667 27.3334C31.7734 27.3334 32.6667 26.44 32.6667 25.3334C32.6667 24.2267 31.7734 23.3334 30.6667 23.3334Z" fill="#969696"/>
</svg>
