<svg width="23" height="23" viewBox="0 0 23 23" fill="none" xmlns="http://www.w3.org/2000/svg">
<path d="M5.03125 0C5.22187 0 5.40469 0.0757252 5.53948 0.210517C5.67427 0.345309 5.75 0.528126 5.75 0.71875V1.4375H17.25V0.71875C17.25 0.528126 17.3257 0.345309 17.4605 0.210517C17.5953 0.0757252 17.7781 0 17.9688 0C18.1594 0 18.3422 0.0757252 18.477 0.210517C18.6118 0.345309 18.6875 0.528126 18.6875 0.71875V1.4375H20.125C20.8875 1.4375 21.6188 1.7404 22.1579 2.27957C22.6971 2.81874 23 3.55 23 4.3125V20.125C23 20.8875 22.6971 21.6188 22.1579 22.1579C21.6188 22.6971 20.8875 23 20.125 23H2.875C2.1125 23 1.38124 22.6971 0.842068 22.1579C0.302901 21.6188 0 20.8875 0 20.125V7.1875H23V5.75H0V4.3125C0 3.55 0.302901 2.81874 0.842068 2.27957C1.38124 1.7404 2.1125 1.4375 2.875 1.4375H4.3125V0.71875C4.3125 0.528126 4.38823 0.345309 4.52302 0.210517C4.65781 0.0757252 4.84063 0 5.03125 0V0Z" fill="#D1D4F3"/>
</svg>
