<svg width="35" height="34" viewBox="0 0 35 34" fill="none" xmlns="http://www.w3.org/2000/svg">
<path d="M23.3242 2.69128L33.9997 4.12664L25.2081 12.9182L23.3242 2.69128Z" fill="white"/>
<path d="M10.7663 31.3981L0.0908203 29.9627L8.88238 21.1711L10.7663 31.3981Z" fill="white"/>
<path d="M2.69141 10.7648L4.12676 0.0893555L12.9183 8.88091L2.69141 10.7648Z" fill="white"/>
<path d="M3.85752 14.5331L0.0897097 15.2508C-8.68907e-08 15.8788 0 16.417 0 17.045C0 21.1717 1.43536 25.1189 4.12665 28.169L6.81794 25.8366C4.75462 23.4144 3.58839 20.2746 3.58839 17.045C3.58839 16.2376 3.6781 15.3405 3.85752 14.5331Z" fill="white"/>
<path d="M17.0451 0C12.2008 0 7.89472 2.06332 4.75488 5.29288L7.26676 7.80475C9.77863 5.20317 13.1876 3.58839 17.0451 3.58839C17.8525 3.58839 18.7496 3.6781 19.557 3.85752L20.185 0.358839C19.1982 0.0897098 18.1216 0 17.0451 0Z" fill="white"/>
<path d="M30.2332 19.5571L34.001 18.8394C34.0907 18.2114 34.0907 17.6732 34.0907 17.0452C34.0907 13.098 32.745 9.24044 30.2332 6.19031L27.4521 8.43305C29.4258 10.8552 30.5023 13.9053 30.5023 16.9555C30.5023 17.8526 30.4126 18.7497 30.2332 19.5571Z" fill="white"/>
<path d="M26.8235 26.2848C24.3116 28.8864 20.9026 30.5011 17.0451 30.5011C16.2377 30.5011 15.3406 30.4114 14.5332 30.232L13.9053 33.7307C14.9818 33.9101 16.0583 33.9998 17.0451 33.9998C21.8894 33.9998 26.1955 31.9365 29.3354 28.707L26.8235 26.2848Z" fill="white"/>
<path d="M31.3998 23.3245L29.9644 34L21.1729 25.2084L31.3998 23.3245Z" fill="white"/>
</svg>



