<svg width="35" height="37" viewBox="0 0 35 37" fill="none" xmlns="http://www.w3.org/2000/svg">
<path d="M15.4223 0.699478C16.6406 -0.233159 18.3339 -0.233159 19.5522 0.699478L34.0139 11.7542C35.8558 13.1619 34.8678 16.0997 32.5537 16.1113H2.41786C0.106667 16.0997 -0.884261 13.1619 0.960614 11.7542L15.4223 0.699478ZM17.4858 11.011C18.0655 11.011 18.6215 10.7807 19.0314 10.3707C19.4414 9.9608 19.6717 9.40481 19.6717 8.82509C19.6717 8.24536 19.4414 7.68937 19.0314 7.27944C18.6215 6.86951 18.0655 6.63922 17.4858 6.63922C16.9061 6.63922 16.3501 6.86951 15.9402 7.27944C15.5302 7.68937 15.2999 8.24536 15.2999 8.82509C15.2999 9.40481 15.5302 9.9608 15.9402 10.3707C16.3501 10.7807 16.9061 11.011 17.4858 11.011Z" fill="white"/>
<path d="M4.37012 19.0258V27.7693H8.74186V19.0258H4.37012Z" fill="white"/>
<path d="M11.6572 19.0258V27.7693H16.029V19.0258H11.6572Z" fill="white"/>
<path d="M18.9424 19.0258V27.7693H23.3141V19.0258H18.9424Z" fill="white"/>
<path d="M26.2305 19.0258V27.7693H30.6022V19.0258H26.2305Z" fill="white"/>
<path d="M0 34.3266C0 32.3156 1.63212 30.6835 3.64312 30.6835H31.3308C33.3418 30.6835 34.9739 32.3156 34.9739 34.3266V35.0552C34.9739 35.4417 34.8204 35.8124 34.5471 36.0856C34.2738 36.3589 33.9032 36.5125 33.5167 36.5125H1.45725C1.07076 36.5125 0.700105 36.3589 0.426818 36.0856C0.153531 35.8124 0 35.4417 0 35.0552V34.3266Z" fill="white"/>
</svg>

