<svg width="19" height="30" viewBox="0 0 19 30" fill="none" xmlns="http://www.w3.org/2000/svg">
<path d="M6.65357 5.62418C5.0804 5.62418 3.80405 4.36459 3.80405 2.81209C3.80405 1.25958 5.0804 0 6.65357 0C8.22674 0 9.50309 1.25958 9.50309 2.81209C9.50309 4.36459 8.22674 5.62418 6.65357 5.62418ZM1.04358 14.3592L2.42678 13.6679L3.00262 11.9455C3.87529 9.33262 6.30925 7.50476 9.06972 7.4989C11.2069 7.49304 12.3882 8.09061 14.6085 8.97525C15.8908 9.48494 16.9415 10.4516 17.5589 11.6819L17.9567 12.4786C18.4197 13.4043 18.0457 14.5291 17.1137 14.9919C16.1876 15.4548 15.0596 15.0798 14.5907 14.1542L14.1929 13.3574C13.9851 12.9473 13.6408 12.6251 13.2134 12.4552L11.6224 11.8225L12.5248 15.3786C12.8335 16.5972 12.501 17.8919 11.6402 18.8234L8.08427 22.6549C7.65684 23.1177 7.35408 23.6743 7.19973 24.2777L6.11335 28.572C5.85808 29.5738 4.82513 30.1889 3.80999 29.937C2.79485 29.6851 2.17151 28.6657 2.42678 27.6639L3.74469 22.4498C3.89903 21.8464 4.20179 21.284 4.62922 20.827L7.33033 17.9153L6.30925 13.8905L5.98274 14.8572C5.66811 15.8004 4.99135 16.5796 4.10087 17.0248L2.71767 17.7162C1.79158 18.179 0.663643 17.804 0.19466 16.8784C-0.262449 15.9586 0.111549 14.822 1.04358 14.3592ZM14.6322 22.6022C14.8222 23.0767 15.1071 23.5044 15.4752 23.8617L18.4435 26.7969C19.1855 27.5292 19.1855 28.7184 18.4435 29.4508C17.7014 30.1831 16.5022 30.1831 15.7602 29.4508L12.2339 25.9708C11.8718 25.6134 11.5868 25.1858 11.3909 24.7112L10.5895 22.731C13.8723 19.1984 12.8869 20.2822 13.4034 19.585L14.6322 22.6022Z" fill="#D1D4F3"/>
</svg>
